<svg xmlns="http://www.w3.org/2000/svg" viewBox="0 0 64 64" width="64" height="64" role="img" aria-label="Galata Vault"><title>Galata Vault</title><g fill="#ECE8E0"><circle cx="32" cy="4.2" r="1.6"/><path fill-rule="evenodd" d="M32 6.5L46.5 25.5H44.5V34H42V56H46V60H18V56H22V34H19.5V25.5H17.5ZM24.2 32V29.4A1.8 1.8 0 0 1 27.8 29.4V32ZM30.2 32V29.4A1.8 1.8 0 0 1 33.8 29.4V32ZM36.2 32V29.4A1.8 1.8 0 0 1 39.8 29.4V32ZM30.8 42V38.6A1.2 1.2 0 0 1 33.2 38.6V42ZM29.6 47.5A2.4 2.4 0 0 1 34.4 47.5A2.4 2.4 0 0 1 33.38 49.47L34.3 55H29.7L30.62 49.47A2.4 2.4 0 0 1 29.6 47.5Z"/></g></svg>
